<?xml version="1.0" standalone="no"?>
<!DOCTYPE svg PUBLIC "-//W3C//DTD SVG 20010904//EN"
 "http://www.w3.org/TR/2001/REC-SVG-20010904/DTD/svg10.dtd">
<svg version="1.0" xmlns="http://www.w3.org/2000/svg"
 width="500.000000pt" height="500.000000pt" viewBox="0 0 500.000000 500.000000"
 preserveAspectRatio="xMidYMid meet">

<g transform="translate(0.000000,500.000000) scale(0.100000,-0.100000)"
fill="#000000" stroke="none">
<path d="M3684 4965 c0 -18 4 -31 8 -29 5 3 6 9 4 13 -3 4 1 8 8 8 7 0 13 -6
13 -13 0 -7 -4 -11 -9 -8 -4 3 -8 -2 -8 -11 0 -10 5 -13 13 -9 8 5 8 2 -2 -9
-14 -18 -26 -23 -16 -8 3 5 2 12 -3 14 -4 3 -7 -52 -6 -121 1 -70 2 -127 4
-127 1 0 3 -8 5 -18 2 -9 -1 -15 -6 -11 -5 3 -9 -2 -9 -11 0 -10 -5 -13 -12
-9 -7 4 -8 3 -4 -5 6 -9 11 -9 21 -1 12 10 12 7 2 -13 -6 -14 -14 -24 -17 -22
-3 2 -6 -12 -6 -30 0 -18 3 -32 6 -30 3 2 6 -11 6 -29 0 -20 -5 -33 -13 -33
-9 0 -10 4 -3 12 7 8 5 12 -3 12 -9 0 -12 -15 -11 -46 1 -25 3 -46 4 -46 1 0
3 -8 5 -18 2 -9 -1 -15 -6 -11 -5 3 -9 -2 -9 -11 0 -10 5 -13 13 -9 8 5 8 2
-2 -9 -14 -18 -26 -23 -16 -8 3 5 2 12 -3 15 -4 2 -8 -11 -8 -29 0 -18 3 -32
7 -30 12 8 3 -45 -11 -57 -12 -11 -12 -10 -2 3 9 12 9 16 -2 16 -8 0 -12 -10
-10 -26 1 -14 3 -26 4 -26 1 0 3 -8 5 -18 2 -9 -1 -15 -6 -11 -5 3 -9 -2 -9
-11 0 -9 -4 -14 -9 -11 -5 4 -8 -2 -6 -11 2 -10 4 -18 5 -18 1 0 3 -8 5 -17 2
-9 -4 -23 -13 -30 -15 -11 -15 -11 -5 3 10 13 10 16 -1 16 -13 0 -16 -32 -5
-52 7 -12 -15 -57 -24 -49 -8 9 -3 -19 7 -35 6 -10 5 -12 -2 -7 -7 4 -12 1
-12 -9 0 -9 5 -13 10 -10 16 10 11 -1 -7 -16 -10 -8 -14 -9 -10 -2 4 6 3 14
-2 17 -11 7 -9 -13 3 -33 6 -10 5 -12 -2 -7 -7 4 -12 1 -12 -9 0 -9 -4 -14 -9
-11 -5 4 -8 -2 -6 -11 2 -10 4 -18 5 -18 1 0 3 -8 5 -17 2 -9 -4 -23 -13 -30
-15 -11 -15 -11 -5 3 10 13 10 16 -1 16 -15 0 -16 -14 -2 -36 6 -10 5 -12 -2
-7 -27 16 -9 -6 40 -51 376 -345 562 -770 545 -1248 -10 -313 -97 -584 -266
-837 -428 -638 -1255 -872 -1970 -559 -178 79 -378 224 -514 374 -56 62 -82
83 -101 83 -13 0 -22 -4 -20 -8 3 -5 9 -6 14 -3 5 3 11 2 14 -3 3 -5 -17 -8
-44 -7 -27 1 -47 -2 -44 -7 3 -5 10 -5 16 -2 6 4 8 3 5 -3 -4 -5 -24 -9 -46
-8 -22 1 -38 -2 -35 -7 3 -4 9 -6 14 -3 5 3 11 2 14 -3 3 -5 -17 -8 -44 -7
-27 1 -47 -2 -44 -7 3 -5 10 -5 16 -2 6 4 8 2 5 -4 -4 -5 -15 -9 -25 -7 -9 1
-26 -5 -37 -14 -16 -13 -17 -13 -8 -1 10 13 7 16 -22 16 -18 0 -31 -4 -29 -8
3 -5 9 -6 14 -3 5 3 11 2 14 -3 3 -5 -17 -8 -44 -7 -27 1 -47 -2 -44 -7 3 -5
10 -5 16 -2 6 4 8 2 5 -4 -4 -5 -15 -9 -25 -7 -9 1 -26 -5 -37 -14 -16 -13
-17 -13 -8 -1 10 13 7 16 -22 16 -18 0 -31 -4 -29 -8 3 -5 9 -6 14 -3 5 3 11
2 14 -3 2 -4 -26 -8 -64 -7 -38 1 -67 -2 -65 -6 3 -4 18 -5 35 -4 16 1 28 -1
25 -4 -2 -4 -21 -7 -42 -6 -22 1 -46 -5 -58 -14 -17 -14 -18 -14 -8 -1 10 13
7 16 -22 16 -18 0 -31 -4 -29 -8 3 -5 9 -6 14 -3 5 3 11 1 14 -3 9 -14 -40 -8
-58 8 -15 11 -17 11 -14 -1 2 -10 -13 -13 -69 -13 -39 0 -70 -3 -68 -6 2 -4
27 -6 54 -5 28 1 48 -1 46 -5 -2 -3 -39 -5 -82 -5 -57 1 -83 -3 -98 -14 -16
-13 -18 -14 -8 -1 10 13 2 15 -62 15 -40 0 -72 -3 -69 -6 2 -4 17 -5 34 -4 17
1 32 0 34 -4 9 -14 -161 -6 -178 8 -10 8 -16 10 -15 5 4 -23 -3 -26 -21 -9
-19 17 -19 14 -20 -644 l0 -661 2500 0 2500 0 0 2500 0 2500 -658 0 -658 -1 0
-34z m30 17 c3 -5 -1 -9 -9 -9 -8 0 -12 4 -9 9 3 4 7 8 9 8 2 0 6 -4 9 -8z m6
-107 c0 -2 -6 -8 -13 -14 -10 -8 -14 -7 -14 2 0 8 6 14 14 14 7 0 13 -1 13 -2z
m0 -40 c0 -2 -6 -8 -13 -14 -10 -8 -14 -7 -14 2 0 8 6 14 14 14 7 0 13 -1 13
-2z m-40 -400 c0 -2 -6 -8 -13 -14 -10 -8 -14 -7 -14 2 0 8 6 14 14 14 7 0 13
-1 13 -2z m-3406 -3133 c3 -5 -1 -9 -9 -9 -8 0 -12 4 -9 9 3 4 7 8 9 8 2 0 6
-4 9 -8z"/>
<path d="M86 1308 c3 -5 10 -6 15 -3 13 9 11 12 -6 12 -8 0 -12 -4 -9 -9z"/>
</g>
</svg>
